<?xml version="1.0" encoding="utf-8"?>
<!-- Generator: Adobe Illustrator 15.1.0, SVG Export Plug-In . SVG Version: 6.00 Build 0)  -->
<!DOCTYPE svg PUBLIC "-//W3C//DTD SVG 1.1//EN" "http://www.w3.org/Graphics/SVG/1.1/DTD/svg11.dtd">
<svg version="1.1" id="Layer_1" xmlns="http://www.w3.org/2000/svg" xmlns:xlink="http://www.w3.org/1999/xlink" x="0px" y="0px"
	 width="640px" height="257.064px" viewBox="0 0 640 257.064" enable-background="new 0 0 640 257.064" xml:space="preserve">
<g>
	<g>
		<g>
			<path fill="#666666" d="M349.919,97.246c0,0.791-0.019,1.483-0.058,2.076c-0.036,0.594-0.103,1.113-0.193,1.558
				c-0.093,0.445-0.213,0.843-0.361,1.188c-0.147,0.347-0.408,0.768-0.777,1.261c-0.371,0.495-1.149,1.249-2.336,2.262
				c-1.188,1.016-2.661,2.002-4.422,2.968c-1.763,0.964-3.783,1.779-6.063,2.446c-2.278,0.667-4.774,1.001-7.479,1.001
				c-4.672,0-8.891-1.038-12.652-3.114c-3.765-2.076-6.973-5.142-9.623-9.195c-2.651-4.054-4.69-9.06-6.117-15.017
				c-1.429-5.957-2.142-12.816-2.142-20.58c0-7.959,0.769-15.055,2.308-21.283c1.538-6.229,3.699-11.506,6.48-15.833
				c2.779-4.325,6.108-7.625,9.983-9.9c3.874-2.271,8.166-3.41,12.875-3.41c2.076,0,4.098,0.26,6.063,0.778
				c1.966,0.519,3.783,1.175,5.451,1.966s3.15,1.705,4.449,2.743c1.297,1.038,2.196,1.891,2.697,2.559s0.824,1.176,0.975,1.521
				c0.146,0.347,0.269,0.754,0.36,1.224c0.093,0.471,0.167,1.026,0.224,1.668c0.056,0.645,0.082,1.409,0.082,2.301
				c0,0.988-0.037,1.828-0.111,2.521c-0.075,0.693-0.187,1.273-0.336,1.743c-0.149,0.471-0.325,0.814-0.53,1.038
				c-0.205,0.223-0.457,0.334-0.756,0.334c-0.521,0-1.248-0.482-2.181-1.446c-0.933-0.965-2.135-2.026-3.606-3.188
				c-1.474-1.16-3.263-2.226-5.367-3.188c-2.106-0.964-4.632-1.446-7.575-1.446c-3.207,0-6.123,0.854-8.752,2.56
				c-2.629,1.706-4.874,4.216-6.738,7.526c-1.864,3.313-3.308,7.354-4.333,12.125c-1.026,4.771-1.538,10.223-1.538,16.353
				c0,6.081,0.494,11.458,1.481,16.13c0.987,4.672,2.404,8.578,4.25,11.717c1.846,3.141,4.109,5.515,6.793,7.12
				c2.685,1.606,5.722,2.409,9.114,2.409c2.869,0,5.377-0.469,7.521-1.409c2.143-0.938,3.969-1.989,5.479-3.151
				c1.51-1.16,2.749-2.212,3.719-3.151c0.969-0.938,1.732-1.408,2.292-1.408c0.261,0,0.485,0.074,0.671,0.223
				c0.187,0.147,0.336,0.434,0.447,0.854c0.111,0.421,0.195,1.001,0.252,1.742C349.891,95.17,349.919,96.11,349.919,97.246z"/>
			<path fill="#666666" d="M410.598,108.889c0,0.396-0.055,0.741-0.166,1.037c-0.11,0.299-0.354,0.546-0.723,0.742
				c-0.372,0.197-0.89,0.347-1.558,0.444s-1.559,0.149-2.671,0.149c-0.965,0-1.752-0.052-2.362-0.149
				c-0.613-0.099-1.104-0.259-1.476-0.481c-0.37-0.223-0.657-0.53-0.861-0.928c-0.204-0.395-0.38-0.889-0.528-1.481l-6.618-22.618
				c-0.777-2.57-1.585-4.933-2.42-7.082c-0.834-2.15-1.826-4.005-2.977-5.563c-1.148-1.557-2.502-2.769-4.06-3.634
				c-1.558-0.864-3.431-1.298-5.618-1.298h-6.396v40.861c0,0.396-0.084,0.741-0.251,1.037c-0.166,0.299-0.428,0.532-0.778,0.705
				c-0.353,0.175-0.834,0.32-1.444,0.445c-0.612,0.122-1.383,0.187-2.31,0.187s-1.696-0.063-2.31-0.187
				c-0.611-0.125-1.104-0.271-1.475-0.445c-0.369-0.173-0.63-0.406-0.777-0.705c-0.148-0.296-0.223-0.642-0.223-1.037V20.048
				c0-1.929,0.381-3.274,1.141-4.042c0.76-0.767,1.565-1.149,2.418-1.149h15.296c1.815,0,3.329,0.063,4.534,0.187
				c1.203,0.124,2.289,0.259,3.254,0.407c2.781,0.644,5.236,1.657,7.369,3.04c2.132,1.385,3.922,3.141,5.366,5.266
				c1.446,2.127,2.53,4.563,3.254,7.306c0.724,2.744,1.084,5.771,1.084,9.085c0,3.214-0.323,6.094-0.973,8.639
				c-0.648,2.548-1.585,4.796-2.81,6.749s-2.689,3.646-4.395,5.08s-3.615,2.645-5.729,3.634c1.187,0.692,2.262,1.569,3.227,2.632
				c0.963,1.064,1.862,2.336,2.696,3.819c0.835,1.483,1.622,3.188,2.364,5.117c0.74,1.928,1.481,4.104,2.225,6.525l6.452,21.136
				c0.518,1.778,0.853,3.028,1,3.745C410.523,107.938,410.598,108.494,410.598,108.889z M396.193,41.479
				c0-3.756-0.631-6.935-1.893-9.528c-1.26-2.596-3.374-4.462-6.34-5.6c-0.928-0.347-1.975-0.594-3.143-0.741
				c-1.168-0.148-2.698-0.223-4.59-0.223h-8.063V57.72h9.344c2.521,0,4.7-0.408,6.535-1.225c1.836-0.815,3.365-1.953,4.589-3.411
				c1.225-1.458,2.121-3.176,2.697-5.153C395.904,45.954,396.193,43.804,396.193,41.479z"/>
			<path fill="#666666" d="M478.344,106.294c0.296,1.088,0.453,1.965,0.473,2.633c0.019,0.667-0.12,1.175-0.417,1.521
				c-0.298,0.347-0.787,0.568-1.475,0.667c-0.687,0.099-1.604,0.149-2.753,0.149s-2.066-0.038-2.753-0.111
				c-0.687-0.074-1.205-0.199-1.557-0.371c-0.354-0.173-0.613-0.408-0.779-0.705c-0.167-0.296-0.325-0.667-0.474-1.112
				l-6.175-23.358h-29.922l-5.896,23.063c-0.112,0.445-0.26,0.829-0.445,1.149c-0.187,0.323-0.454,0.594-0.806,0.815
				c-0.354,0.224-0.854,0.384-1.502,0.481c-0.649,0.099-1.494,0.149-2.531,0.149c-1.076,0-1.956-0.063-2.642-0.187
				c-0.688-0.125-1.168-0.358-1.446-0.705c-0.278-0.345-0.409-0.853-0.39-1.521c0.018-0.667,0.175-1.544,0.473-2.633l24.139-89.14
				c0.148-0.543,0.343-0.987,0.584-1.334c0.241-0.346,0.593-0.618,1.058-0.814c0.464-0.197,1.057-0.334,1.779-0.408
				c0.724-0.074,1.642-0.111,2.753-0.111c1.188,0,2.17,0.037,2.947,0.111c0.778,0.074,1.409,0.211,1.892,0.408
				c0.483,0.196,0.854,0.48,1.112,0.853c0.259,0.37,0.464,0.828,0.611,1.372L478.344,106.294z M447.363,27.612h-0.056
				l-12.402,47.833h25.027L447.363,27.612z"/>
			<path fill="#666666" d="M528.178,20.344c0,0.939-0.037,1.757-0.11,2.447c-0.074,0.693-0.205,1.249-0.39,1.669
				c-0.187,0.42-0.398,0.729-0.64,0.928c-0.242,0.197-0.493,0.297-0.752,0.297h-26.363v32.63h24.918c0.259,0,0.509,0.086,0.75,0.259
				c0.241,0.174,0.454,0.458,0.64,0.853c0.187,0.396,0.314,0.929,0.392,1.596c0.073,0.668,0.11,1.521,0.11,2.559
				c0,0.94-0.037,1.743-0.11,2.41c-0.076,0.667-0.205,1.212-0.392,1.632c-0.186,0.421-0.397,0.741-0.64,0.964
				c-0.242,0.224-0.491,0.334-0.75,0.334h-24.918v39.972c0,0.347-0.074,0.681-0.222,1.002c-0.148,0.32-0.408,0.567-0.778,0.74
				c-0.372,0.175-0.854,0.32-1.446,0.445c-0.594,0.122-1.372,0.187-2.336,0.187c-0.89,0-1.65-0.063-2.28-0.187
				c-0.631-0.125-1.132-0.271-1.503-0.445c-0.369-0.173-0.63-0.42-0.777-0.74c-0.149-0.321-0.224-0.655-0.224-1.002V20.048
				c0-1.929,0.381-3.274,1.142-4.042c0.76-0.767,1.565-1.149,2.419-1.149h32.37c0.259,0,0.51,0.101,0.752,0.298
				c0.24,0.197,0.453,0.519,0.64,0.964c0.185,0.444,0.314,1.026,0.39,1.742C528.141,18.577,528.178,19.406,528.178,20.344z"/>
			<path fill="#666666" d="M587.802,20.344c0,0.939-0.038,1.757-0.111,2.447c-0.074,0.693-0.194,1.249-0.361,1.669
				c-0.166,0.42-0.37,0.729-0.611,0.928c-0.241,0.197-0.511,0.297-0.807,0.297h-20.245v83.205c0,0.396-0.075,0.741-0.223,1.037
				c-0.147,0.299-0.407,0.532-0.778,0.705c-0.372,0.175-0.862,0.32-1.474,0.445c-0.611,0.122-1.383,0.187-2.309,0.187
				c-0.891,0-1.65-0.063-2.281-0.187c-0.631-0.125-1.132-0.271-1.502-0.445c-0.371-0.173-0.631-0.406-0.777-0.705
				c-0.149-0.296-0.224-0.642-0.224-1.037V25.684h-20.246c-0.297,0-0.563-0.1-0.806-0.297c-0.241-0.197-0.436-0.508-0.584-0.928
				c-0.149-0.42-0.269-0.976-0.362-1.669c-0.092-0.69-0.139-1.508-0.139-2.447c0-0.938,0.047-1.767,0.139-2.483
				c0.095-0.716,0.213-1.298,0.362-1.742c0.148-0.445,0.343-0.767,0.584-0.964s0.509-0.298,0.806-0.298h50.059
				c0.296,0,0.564,0.101,0.807,0.298s0.445,0.519,0.611,0.964c0.167,0.444,0.287,1.026,0.36,1.742
				C587.764,18.577,587.802,19.406,587.802,20.344z"/>
			<path fill="#666666" d="M636.3,83.898c0,4.5-0.621,8.504-1.862,12.014c-1.243,3.512-2.967,6.489-5.174,8.938
				c-2.205,2.446-4.803,4.289-7.785,5.523c-2.984,1.235-6.201,1.854-9.65,1.854c-2.41,0-4.645-0.272-6.701-0.816
				s-3.894-1.211-5.506-2.002c-1.614-0.79-2.968-1.604-4.061-2.447c-1.095-0.84-1.854-1.558-2.28-2.149
				c-0.429-0.595-0.742-1.348-0.946-2.263c-0.203-0.914-0.306-2.139-0.306-3.671c0-1.087,0.037-1.989,0.11-2.707
				c0.073-0.716,0.187-1.298,0.333-1.742c0.148-0.444,0.335-0.754,0.559-0.928c0.223-0.172,0.479-0.26,0.777-0.26
				c0.519,0,1.251,0.421,2.197,1.261c0.944,0.843,2.158,1.756,3.644,2.744c1.481,0.99,3.271,1.917,5.365,2.781
				c2.096,0.865,4.516,1.298,7.26,1.298c2.075,0,3.978-0.371,5.699-1.112c1.726-0.741,3.208-1.792,4.451-3.151
				c1.24-1.359,2.196-3.027,2.863-5.006c0.668-1.977,1.001-4.228,1.001-6.748c0-2.72-0.464-5.043-1.39-6.972
				c-0.929-1.928-2.15-3.621-3.672-5.08c-1.521-1.458-3.255-2.792-5.199-4.005c-1.946-1.21-3.94-2.445-5.979-3.707
				c-2.041-1.261-4.023-2.656-5.951-4.189c-1.929-1.532-3.652-3.337-5.174-5.414c-1.52-2.076-2.753-4.511-3.699-7.304
				c-0.943-2.794-1.417-6.144-1.417-10.05c0-4.005,0.547-7.575,1.641-10.716c1.095-3.139,2.615-5.771,4.562-7.897
				c1.947-2.125,4.264-3.745,6.952-4.857s5.59-1.668,8.704-1.668c1.594,0,3.198,0.186,4.812,0.556
				c1.613,0.371,3.134,0.866,4.562,1.483c1.427,0.619,2.698,1.311,3.81,2.076c1.112,0.768,1.846,1.385,2.197,1.854
				c0.354,0.473,0.584,0.842,0.696,1.113c0.109,0.271,0.202,0.619,0.275,1.038c0.075,0.421,0.132,0.928,0.169,1.521
				c0.035,0.594,0.055,1.36,0.055,2.3c0,0.89-0.027,1.682-0.082,2.373c-0.057,0.691-0.141,1.272-0.251,1.742
				c-0.111,0.471-0.271,0.815-0.474,1.038c-0.203,0.224-0.436,0.333-0.695,0.333c-0.407,0-1.047-0.346-1.919-1.037
				c-0.871-0.691-1.938-1.471-3.197-2.337c-1.261-0.863-2.754-1.655-4.477-2.373c-1.726-0.716-3.663-1.074-5.813-1.074
				c-2.003,0-3.746,0.358-5.229,1.074c-1.483,0.718-2.707,1.669-3.67,2.855c-0.966,1.187-1.688,2.596-2.171,4.227
				c-0.481,1.632-0.724,3.362-0.724,5.191c0,2.669,0.464,4.969,1.393,6.896c0.926,1.929,2.157,3.635,3.696,5.117
				s3.29,2.844,5.257,4.078c1.966,1.237,3.969,2.485,6.007,3.746c2.038,1.26,4.042,2.645,6.008,4.152
				c1.965,1.509,3.716,3.288,5.255,5.34c1.54,2.052,2.781,4.475,3.728,7.267C635.827,76.791,636.3,80.091,636.3,83.898z"/>
		</g>
		<g>
			<path fill="#666666" d="M349.43,214.938c0,0.792-0.019,1.482-0.056,2.076c-0.036,0.595-0.101,1.112-0.19,1.558
				c-0.093,0.445-0.211,0.841-0.355,1.187c-0.146,0.348-0.402,0.769-0.766,1.262c-0.365,0.495-1.133,1.25-2.299,2.263
				c-1.17,1.014-2.619,2.001-4.354,2.966c-1.733,0.964-3.723,1.78-5.967,2.446c-2.243,0.668-4.697,1.002-7.36,1.002
				c-4.597,0-8.748-1.038-12.451-3.115c-3.705-2.076-6.861-5.141-9.47-9.193c-2.609-4.055-4.615-9.062-6.021-15.019
				c-1.406-5.957-2.107-12.817-2.107-20.579c0-7.959,0.757-15.054,2.271-21.285c1.514-6.229,3.641-11.505,6.377-15.832
				c2.736-4.324,6.012-7.626,9.825-9.898c3.813-2.273,8.036-3.411,12.671-3.411c2.043,0,4.029,0.258,5.965,0.778
				c1.935,0.52,3.724,1.175,5.364,1.965c1.642,0.792,3.101,1.706,4.38,2.744c1.274,1.038,2.16,1.891,2.653,2.559
				c0.493,0.667,0.812,1.175,0.958,1.521c0.145,0.347,0.266,0.754,0.355,1.223c0.092,0.471,0.164,1.027,0.22,1.669
				c0.055,0.644,0.081,1.408,0.081,2.299c0,0.989-0.037,1.83-0.11,2.521c-0.073,0.692-0.183,1.273-0.33,1.742
				c-0.147,0.473-0.319,0.815-0.521,1.039c-0.203,0.223-0.451,0.334-0.744,0.334c-0.514,0-1.229-0.481-2.146-1.446
				c-0.918-0.964-2.102-2.025-3.55-3.188c-1.448-1.162-3.21-2.226-5.282-3.189c-2.072-0.965-4.559-1.444-7.455-1.444
				c-3.156,0-6.025,0.853-8.61,2.559c-2.588,1.705-4.797,4.216-6.632,7.526c-1.834,3.313-3.255,7.354-4.265,12.125
				c-1.01,4.771-1.514,10.222-1.514,16.352c0,6.082,0.487,11.459,1.459,16.132c0.971,4.672,2.365,8.576,4.182,11.716
				c1.816,3.141,4.044,5.514,6.685,7.119c2.641,1.606,5.631,2.411,8.971,2.411c2.822,0,5.291-0.471,7.398-1.41
				c2.109-0.938,3.908-1.989,5.394-3.151c1.485-1.16,2.705-2.212,3.659-3.151c0.954-0.938,1.706-1.407,2.256-1.407
				c0.258,0,0.479,0.072,0.66,0.222c0.184,0.148,0.33,0.434,0.441,0.854c0.107,0.421,0.19,1.001,0.246,1.741
				C349.4,212.862,349.43,213.801,349.43,214.938z"/>
			<path fill="#666666" d="M378.385,226.58c0,0.397-0.072,0.742-0.219,1.038c-0.146,0.297-0.4,0.533-0.766,0.705
				c-0.365,0.175-0.848,0.321-1.45,0.445c-0.603,0.122-1.359,0.185-2.271,0.185c-0.878,0-1.627-0.063-2.246-0.185
				c-0.621-0.124-1.113-0.271-1.479-0.445c-0.365-0.172-0.621-0.408-0.766-0.705c-0.146-0.296-0.219-0.641-0.219-1.038v-92.104
				c0-0.396,0.082-0.742,0.245-1.038c0.164-0.296,0.438-0.53,0.821-0.704c0.382-0.173,0.875-0.322,1.479-0.445
				c0.603-0.123,1.321-0.187,2.162-0.187c0.911,0,1.668,0.063,2.271,0.187s1.085,0.272,1.449,0.445
				c0.365,0.174,0.621,0.408,0.767,0.704s0.219,0.642,0.219,1.038L378.385,226.58L378.385,226.58z"/>
			<path fill="#666666" d="M451.512,226.58c0,0.397-0.055,0.742-0.164,1.038c-0.108,0.297-0.348,0.545-0.712,0.742
				s-0.875,0.346-1.532,0.445c-0.656,0.099-1.533,0.146-2.628,0.146c-0.949,0-1.723-0.049-2.324-0.146
				c-0.604-0.101-1.087-0.261-1.451-0.482c-0.365-0.223-0.648-0.53-0.85-0.928c-0.2-0.396-0.375-0.89-0.52-1.482l-6.514-22.618
				c-0.768-2.569-1.561-4.932-2.383-7.082c-0.819-2.15-1.796-4.005-2.929-5.563c-1.13-1.558-2.463-2.769-3.993-3.634
				c-1.532-0.863-3.377-1.299-5.528-1.299h-6.295v40.861c0,0.397-0.083,0.742-0.246,1.038c-0.164,0.297-0.42,0.533-0.767,0.705
				c-0.348,0.175-0.819,0.321-1.423,0.445c-0.603,0.122-1.36,0.185-2.271,0.185c-0.912,0-1.668-0.063-2.271-0.185
				c-0.603-0.124-1.086-0.271-1.45-0.445c-0.364-0.172-0.621-0.408-0.766-0.705c-0.146-0.296-0.219-0.641-0.219-1.038v-88.842
				c0-1.928,0.373-3.275,1.122-4.041c0.746-0.767,1.54-1.15,2.38-1.15h15.051c1.789,0,3.277,0.063,4.462,0.188
				c1.186,0.123,2.253,0.259,3.203,0.408c2.736,0.642,5.153,1.655,7.252,3.039c2.098,1.385,3.859,3.141,5.282,5.266
				c1.422,2.126,2.488,4.561,3.202,7.305c0.71,2.744,1.065,5.772,1.065,9.085c0,3.215-0.317,6.094-0.958,8.639
				c-0.639,2.548-1.56,4.798-2.764,6.75s-2.646,3.646-4.324,5.079c-1.678,1.436-3.559,2.646-5.637,3.634
				c1.167,0.692,2.225,1.569,3.174,2.634c0.948,1.063,1.834,2.336,2.654,3.819c0.82,1.481,1.597,3.188,2.326,5.115
				c0.729,1.93,1.457,4.104,2.188,6.525l6.35,21.136c0.512,1.779,0.841,3.029,0.985,3.745
				C451.438,225.629,451.512,226.186,451.512,226.58z M437.336,159.17c0-3.756-0.621-6.933-1.861-9.528
				c-1.24-2.597-3.32-4.461-6.238-5.6c-0.913-0.346-1.944-0.594-3.094-0.741c-1.149-0.148-2.655-0.224-4.517-0.224h-7.937v32.333
				h9.195c2.481,0,4.625-0.408,6.432-1.224s3.313-1.952,4.516-3.411c1.204-1.458,2.089-3.176,2.655-5.154
				C437.052,163.645,437.336,161.495,437.336,159.17z"/>
			<path fill="#666666" d="M518.507,214.938c0,0.792-0.019,1.482-0.055,2.076c-0.037,0.595-0.102,1.112-0.191,1.558
				c-0.092,0.445-0.209,0.841-0.355,1.187c-0.146,0.348-0.402,0.769-0.766,1.262c-0.365,0.495-1.133,1.25-2.299,2.263
				c-1.168,1.014-2.619,2.001-4.354,2.966c-1.733,0.964-3.723,1.78-5.964,2.446c-2.244,0.668-4.699,1.002-7.362,1.002
				c-4.598,0-8.75-1.038-12.452-3.115c-3.704-2.076-6.861-5.141-9.469-9.193c-2.609-4.055-4.617-9.062-6.021-15.019
				s-2.107-12.817-2.107-20.579c0-7.959,0.757-15.054,2.271-21.285c1.515-6.229,3.64-11.505,6.376-15.832
				c2.736-4.324,6.013-7.626,9.824-9.898c3.813-2.273,8.037-3.411,12.672-3.411c2.043,0,4.031,0.258,5.965,0.778
				c1.936,0.52,3.725,1.175,5.365,1.965c1.642,0.792,3.101,1.706,4.379,2.744c1.276,1.038,2.161,1.891,2.654,2.559
				c0.493,0.667,0.812,1.175,0.958,1.521c0.146,0.347,0.264,0.754,0.354,1.223c0.092,0.471,0.164,1.027,0.22,1.669
				c0.056,0.644,0.081,1.408,0.081,2.299c0,0.989-0.036,1.83-0.109,2.521c-0.073,0.692-0.183,1.273-0.329,1.742
				c-0.146,0.473-0.321,0.815-0.523,1.039c-0.2,0.223-0.448,0.334-0.742,0.334c-0.515,0-1.229-0.481-2.146-1.446
				c-0.919-0.964-2.101-2.025-3.55-3.188s-3.211-2.226-5.283-3.189c-2.073-0.965-4.557-1.444-7.454-1.444
				c-3.155,0-6.026,0.853-8.612,2.559c-2.587,1.705-4.798,4.216-6.631,7.526c-1.835,3.313-3.257,7.354-4.266,12.125
				c-1.009,4.771-1.512,10.222-1.512,16.352c0,6.082,0.483,11.459,1.457,16.132c0.972,4.672,2.366,8.576,4.182,11.716
				c1.816,3.141,4.045,5.514,6.687,7.119c2.642,1.606,5.632,2.411,8.97,2.411c2.823,0,5.292-0.471,7.401-1.41
				c2.106-0.938,3.904-1.989,5.392-3.151c1.485-1.16,2.705-2.212,3.66-3.151c0.953-0.938,1.704-1.407,2.256-1.407
				c0.256,0,0.478,0.072,0.658,0.222c0.185,0.148,0.331,0.434,0.44,0.854c0.11,0.421,0.193,1.001,0.248,1.741
				C518.479,212.862,518.507,213.801,518.507,214.938z"/>
			<path fill="#666666" d="M574.777,222.947c0,0.99-0.038,1.817-0.111,2.485s-0.191,1.235-0.355,1.706
				c-0.164,0.47-0.364,0.814-0.601,1.037c-0.239,0.223-0.521,0.333-0.85,0.333h-31.309c-0.84,0-1.634-0.383-2.382-1.148
				c-0.747-0.767-1.122-2.113-1.122-4.041v-88.843c0-0.396,0.072-0.742,0.219-1.038c0.147-0.296,0.402-0.53,0.768-0.704
				c0.364-0.173,0.856-0.322,1.478-0.445s1.37-0.187,2.245-0.187c0.911,0,1.67,0.063,2.272,0.187
				c0.601,0.123,1.083,0.272,1.448,0.445c0.365,0.174,0.62,0.408,0.768,0.704c0.146,0.296,0.219,0.642,0.219,1.038v82.982h25.396
				c0.327,0,0.609,0.112,0.85,0.334c0.235,0.224,0.437,0.544,0.601,0.964c0.164,0.421,0.282,0.978,0.355,1.668
				C574.739,221.118,574.777,221.959,574.777,222.947z"/>
			<path fill="#666666" d="M631.646,223.243c0,0.891-0.037,1.669-0.11,2.336c-0.073,0.668-0.2,1.224-0.383,1.669
				c-0.184,0.445-0.393,0.769-0.629,0.965c-0.238,0.197-0.503,0.296-0.794,0.296h-33.991c-0.838,0-1.632-0.383-2.38-1.148
				c-0.749-0.767-1.122-2.113-1.122-4.041v-85.58c0-1.928,0.373-3.275,1.122-4.041c0.748-0.767,1.542-1.15,2.38-1.15h33.607
				c0.291,0,0.557,0.101,0.793,0.298c0.237,0.198,0.431,0.519,0.574,0.964c0.146,0.444,0.266,1.002,0.356,1.668
				c0.092,0.669,0.137,1.497,0.137,2.483c0,0.891-0.045,1.67-0.137,2.337s-0.21,1.213-0.356,1.633
				c-0.145,0.421-0.337,0.729-0.574,0.927c-0.236,0.198-0.502,0.296-0.793,0.296h-27.694v30.109h23.755
				c0.291,0,0.555,0.109,0.793,0.333c0.235,0.223,0.438,0.53,0.603,0.928c0.164,0.396,0.281,0.938,0.354,1.631
				s0.109,1.51,0.109,2.448c0,0.89-0.036,1.655-0.109,2.298c-0.073,0.644-0.19,1.162-0.354,1.559s-0.366,0.68-0.603,0.854
				c-0.238,0.173-0.502,0.26-0.793,0.26h-23.755v34.335h28.077c0.292,0,0.557,0.1,0.794,0.297s0.446,0.508,0.63,0.926
				c0.183,0.421,0.31,0.965,0.383,1.634C631.609,221.427,631.646,222.255,631.646,223.243z"/>
		</g>
	</g>
	<g>
		<path fill="#666666" d="M213.609,89.829c5.58,11.917,8.716,25.198,8.716,39.203c0,51.164-41.625,92.787-92.788,92.787
			s-92.788-41.623-92.788-92.787s41.625-92.788,92.788-92.788c14.005,0,27.286,3.137,39.204,8.716l13.844-29.688
			c-16.124-7.549-34.1-11.776-53.047-11.776C60.316,3.496,4,59.812,4,129.032s56.316,125.536,125.537,125.536
			c69.221,0,125.537-56.315,125.537-125.536c0-18.948-4.228-36.924-11.776-53.048L213.609,89.829z"/>
		<g>
			<circle fill="#B3B3B3" cx="200.956" cy="57.614" r="18.421"/>
			<g>
				<path fill="#B3B3B3" d="M129.537,192.252c-34.859,0-63.219-28.359-63.219-63.22c0-34.859,28.36-63.219,63.219-63.219
					s63.219,28.359,63.219,63.219C192.756,163.892,164.396,192.252,129.537,192.252z M129.537,98.562
					c-16.801,0-30.47,13.669-30.47,30.47s13.669,30.471,30.47,30.471c16.802,0,30.471-13.67,30.471-30.471
					S146.339,98.562,129.537,98.562z"/>
			</g>
		</g>
	</g>
</g>
</svg>
