<?xml version="1.0" encoding="utf-8"?>
<!-- Generator: Adobe Illustrator 15.1.0, SVG Export Plug-In . SVG Version: 6.00 Build 0)  -->
<!DOCTYPE svg PUBLIC "-//W3C//DTD SVG 1.1//EN" "http://www.w3.org/Graphics/SVG/1.1/DTD/svg11.dtd">
<svg version="1.1" id="Layer_1" xmlns="http://www.w3.org/2000/svg" xmlns:xlink="http://www.w3.org/1999/xlink" x="0px" y="0px"
	 width="258.5px" height="257.064px" viewBox="0 0 258.5 257.064" enable-background="new 0 0 258.5 257.064" xml:space="preserve">
<g>
	<path fill="#666666" d="M213.322,89.329c5.578,11.917,8.716,25.198,8.716,39.203c0,51.164-41.624,92.787-92.788,92.787
		c-51.163,0-92.787-41.623-92.787-92.787c0-51.163,41.624-92.788,92.787-92.788c14.006,0,27.285,3.138,39.203,8.717l13.844-29.688
		c-16.123-7.549-34.1-11.776-53.047-11.776C60.029,2.996,3.713,59.311,3.713,128.532S60.029,254.068,129.25,254.068
		c69.221,0,125.537-56.315,125.537-125.536c0-18.947-4.229-36.924-11.775-53.048L213.322,89.329z"/>
	<g>
		<circle fill="#B3B3B3" cx="200.669" cy="57.114" r="18.421"/>
		<g>
			<path fill="#B3B3B3" d="M129.25,191.752c-34.859,0-63.219-28.359-63.219-63.22c0-34.858,28.359-63.219,63.219-63.219
				c34.859,0,63.219,28.359,63.219,63.219S164.109,191.752,129.25,191.752z M129.25,98.062c-16.801,0-30.471,13.669-30.471,30.47
				s13.67,30.471,30.471,30.471c16.802,0,30.471-13.67,30.471-30.471S146.052,98.062,129.25,98.062z"/>
		</g>
	</g>
</g>
</svg>
