<?xml version="1.0" encoding="utf-8"?>
<!-- Generator: Adobe Illustrator 15.1.0, SVG Export Plug-In . SVG Version: 6.00 Build 0)  -->
<!DOCTYPE svg PUBLIC "-//W3C//DTD SVG 1.1//EN" "http://www.w3.org/Graphics/SVG/1.1/DTD/svg11.dtd">
<svg version="1.1" id="Layer_1" xmlns="http://www.w3.org/2000/svg" xmlns:xlink="http://www.w3.org/1999/xlink" x="0px" y="0px"
	 width="640px" height="257.064px" viewBox="0 0 640 257.064" enable-background="new 0 0 640 257.064" xml:space="preserve">
<g>
	<g>
		<g>
			<path fill="#666666" d="M349.919,97.246c0,0.791-0.019,1.483-0.057,2.076c-0.037,0.594-0.103,1.113-0.194,1.558
				c-0.093,0.445-0.213,0.842-0.361,1.187c-0.148,0.347-0.409,0.768-0.778,1.261c-0.371,0.495-1.149,1.249-2.336,2.262
				c-1.187,1.015-2.661,2.002-4.422,2.967c-1.762,0.964-3.782,1.78-6.063,2.447c-2.279,0.667-4.774,1.001-7.48,1.001
				c-4.672,0-8.89-1.038-12.652-3.115c-3.765-2.076-6.973-5.141-9.623-9.195c-2.651-4.054-4.69-9.059-6.117-15.017
				c-1.429-5.957-2.142-12.816-2.142-20.58c0-7.959,0.769-15.054,2.308-21.283c1.538-6.229,3.699-11.506,6.48-15.833
				c2.779-4.325,6.108-7.625,9.983-9.9c3.874-2.272,8.166-3.41,12.875-3.41c2.076,0,4.097,0.259,6.062,0.778
				c1.966,0.519,3.783,1.175,5.452,1.966c1.668,0.791,3.15,1.705,4.449,2.743c1.297,1.038,2.196,1.891,2.697,2.559
				s0.824,1.175,0.974,1.521c0.146,0.347,0.269,0.754,0.361,1.224c0.092,0.47,0.167,1.026,0.223,1.668
				c0.056,0.644,0.083,1.409,0.083,2.3c0,0.989-0.038,1.829-0.112,2.521c-0.075,0.693-0.186,1.273-0.335,1.743
				c-0.15,0.471-0.326,0.815-0.531,1.038s-0.457,0.334-0.756,0.334c-0.521,0-1.248-0.482-2.18-1.446
				c-0.933-0.965-2.135-2.026-3.607-3.189c-1.473-1.16-3.262-2.225-5.367-3.188c-2.107-0.964-4.632-1.446-7.576-1.446
				c-3.207,0-6.123,0.854-8.751,2.559c-2.629,1.706-4.874,4.216-6.738,7.527c-1.864,3.313-3.308,7.354-4.333,12.125
				c-1.026,4.771-1.538,10.222-1.538,16.352c0,6.081,0.494,11.458,1.481,16.13s2.404,8.578,4.25,11.717
				c1.846,3.14,4.109,5.514,6.793,7.12s5.722,2.409,9.114,2.409c2.869,0,5.377-0.469,7.521-1.409
				c2.143-0.938,3.97-1.989,5.479-3.151c1.51-1.161,2.749-2.212,3.719-3.152c0.969-0.938,1.732-1.408,2.292-1.408
				c0.261,0,0.485,0.074,0.67,0.223c0.187,0.147,0.336,0.433,0.448,0.853c0.111,0.421,0.195,1.001,0.252,1.742
				C349.891,95.17,349.919,96.11,349.919,97.246z"/>
			<path fill="#666666" d="M410.598,108.889c0,0.396-0.055,0.742-0.166,1.038c-0.111,0.298-0.354,0.545-0.723,0.742
				c-0.372,0.197-0.89,0.346-1.558,0.444s-1.558,0.149-2.671,0.149c-0.964,0-1.751-0.051-2.362-0.149
				c-0.613-0.099-1.104-0.259-1.475-0.481c-0.371-0.223-0.658-0.531-0.862-0.928c-0.204-0.395-0.38-0.889-0.528-1.482l-6.618-22.618
				c-0.778-2.57-1.585-4.932-2.42-7.082c-0.834-2.15-1.826-4.005-2.976-5.563c-1.149-1.557-2.503-2.769-4.06-3.634
				c-1.558-0.864-3.431-1.298-5.618-1.298h-6.396v40.861c0,0.396-0.084,0.742-0.251,1.038c-0.166,0.298-0.427,0.532-0.778,0.705
				c-0.353,0.174-0.834,0.32-1.445,0.445c-0.612,0.122-1.382,0.186-2.309,0.186s-1.696-0.063-2.309-0.186
				c-0.612-0.125-1.104-0.271-1.475-0.445c-0.37-0.173-0.63-0.407-0.777-0.705c-0.149-0.296-0.223-0.642-0.223-1.038V20.048
				c0-1.929,0.38-3.275,1.141-4.042c0.759-0.767,1.565-1.15,2.418-1.15h15.295c1.816,0,3.329,0.063,4.534,0.187
				c1.204,0.124,2.289,0.259,3.254,0.407c2.781,0.644,5.237,1.657,7.369,3.04c2.132,1.385,3.922,3.141,5.367,5.266
				c1.446,2.127,2.53,4.562,3.254,7.305c0.723,2.744,1.084,5.772,1.084,9.085c0,3.214-0.324,6.094-0.973,8.639
				c-0.649,2.548-1.585,4.796-2.81,6.749c-1.224,1.953-2.689,3.646-4.394,5.08c-1.705,1.434-3.615,2.645-5.729,3.634
				c1.187,0.692,2.262,1.569,3.227,2.632c0.963,1.064,1.862,2.336,2.696,3.819c0.835,1.483,1.622,3.188,2.364,5.117
				c0.741,1.928,1.482,4.104,2.225,6.526l6.452,21.135c0.518,1.779,0.853,3.029,1,3.745
				C410.523,107.938,410.598,108.494,410.598,108.889z M396.193,41.479c0-3.756-0.631-6.934-1.892-9.528
				c-1.26-2.596-3.374-4.462-6.34-5.6c-0.928-0.346-1.975-0.593-3.143-0.741s-2.698-0.223-4.589-0.223h-8.064V57.72h9.344
				c2.521,0,4.7-0.408,6.535-1.224c1.836-0.816,3.365-1.953,4.589-3.411s2.121-3.176,2.697-5.154
				C395.905,45.954,396.193,43.804,396.193,41.479z"/>
			<path fill="#666666" d="M478.344,106.294c0.296,1.088,0.453,1.965,0.472,2.633c0.019,0.667-0.12,1.174-0.417,1.52
				c-0.297,0.347-0.787,0.568-1.474,0.667s-1.604,0.149-2.753,0.149c-1.15,0-2.067-0.038-2.753-0.111
				c-0.687-0.074-1.205-0.199-1.557-0.371c-0.354-0.173-0.613-0.408-0.779-0.705c-0.167-0.296-0.325-0.667-0.474-1.112
				l-6.174-23.359h-29.922l-5.896,23.063c-0.112,0.445-0.26,0.829-0.445,1.149c-0.187,0.323-0.454,0.594-0.806,0.816
				c-0.354,0.223-0.854,0.383-1.502,0.481c-0.649,0.099-1.494,0.149-2.531,0.149c-1.076,0-1.956-0.063-2.642-0.186
				c-0.687-0.125-1.168-0.358-1.446-0.705c-0.278-0.345-0.409-0.853-0.389-1.521c0.017-0.667,0.174-1.544,0.472-2.632l24.139-89.14
				c0.148-0.543,0.343-0.987,0.584-1.334c0.241-0.346,0.593-0.618,1.057-0.815s1.057-0.334,1.78-0.408s1.641-0.111,2.753-0.111
				c1.187,0,2.17,0.037,2.947,0.111c0.778,0.074,1.409,0.211,1.892,0.408s0.853,0.481,1.112,0.853
				c0.259,0.37,0.464,0.828,0.611,1.372L478.344,106.294z M447.363,27.612h-0.055l-12.403,47.833h25.028L447.363,27.612z"/>
			<path fill="#666666" d="M528.178,20.344c0,0.939-0.037,1.756-0.111,2.447c-0.074,0.693-0.205,1.249-0.389,1.669
				c-0.187,0.42-0.399,0.729-0.64,0.927c-0.242,0.198-0.493,0.297-0.752,0.297h-26.363v32.63h24.918c0.259,0,0.509,0.086,0.75,0.259
				c0.241,0.174,0.454,0.458,0.64,0.853c0.186,0.396,0.314,0.928,0.391,1.595c0.073,0.668,0.11,1.521,0.11,2.559
				c0,0.94-0.037,1.743-0.11,2.41c-0.076,0.667-0.205,1.212-0.391,1.632c-0.186,0.421-0.398,0.741-0.64,0.964
				s-0.491,0.334-0.75,0.334h-24.918v39.971c0,0.347-0.074,0.681-0.222,1.002c-0.148,0.321-0.408,0.568-0.778,0.741
				c-0.372,0.174-0.854,0.32-1.446,0.445c-0.594,0.122-1.372,0.186-2.336,0.186c-0.89,0-1.651-0.063-2.281-0.186
				c-0.63-0.125-1.131-0.271-1.502-0.445c-0.37-0.173-0.63-0.42-0.778-0.741c-0.149-0.321-0.223-0.655-0.223-1.002V20.048
				c0-1.929,0.38-3.275,1.141-4.042c0.76-0.767,1.566-1.15,2.419-1.15h32.37c0.259,0,0.51,0.101,0.752,0.298
				c0.24,0.197,0.453,0.519,0.64,0.964c0.184,0.444,0.314,1.026,0.389,1.742C528.141,18.577,528.178,19.406,528.178,20.344z"/>
			<path fill="#666666" d="M587.802,20.344c0,0.939-0.038,1.756-0.112,2.447c-0.074,0.693-0.194,1.249-0.361,1.669
				c-0.166,0.42-0.37,0.729-0.611,0.927c-0.241,0.198-0.511,0.297-0.807,0.297h-20.245v83.205c0,0.396-0.075,0.742-0.223,1.038
				c-0.147,0.298-0.407,0.532-0.778,0.705c-0.372,0.174-0.862,0.32-1.474,0.445c-0.611,0.122-1.382,0.186-2.308,0.186
				c-0.891,0-1.651-0.063-2.281-0.186c-0.631-0.125-1.132-0.271-1.502-0.445c-0.371-0.173-0.631-0.407-0.778-0.705
				c-0.149-0.296-0.223-0.642-0.223-1.038V25.684h-20.246c-0.297,0-0.564-0.099-0.806-0.297c-0.241-0.197-0.436-0.507-0.584-0.927
				c-0.149-0.42-0.269-0.976-0.362-1.669c-0.092-0.691-0.139-1.508-0.139-2.447c0-0.938,0.047-1.767,0.139-2.484
				c0.094-0.716,0.213-1.298,0.362-1.742c0.148-0.445,0.343-0.767,0.584-0.964s0.509-0.298,0.806-0.298h50.058
				c0.296,0,0.565,0.101,0.807,0.298s0.445,0.519,0.611,0.964c0.167,0.444,0.287,1.026,0.361,1.742
				C587.764,18.577,587.802,19.406,587.802,20.344z"/>
			<path fill="#666666" d="M636.3,83.898c0,4.5-0.621,8.504-1.863,12.014c-1.243,3.512-2.966,6.489-5.173,8.937
				c-2.205,2.447-4.803,4.289-7.786,5.524c-2.984,1.235-6.201,1.854-9.65,1.854c-2.41,0-4.644-0.272-6.701-0.816
				s-3.894-1.211-5.506-2.002c-1.614-0.79-2.968-1.605-4.061-2.447c-1.094-0.84-1.854-1.558-2.28-2.15
				c-0.428-0.594-0.742-1.347-0.946-2.262c-0.203-0.914-0.306-2.139-0.306-3.671c0-1.087,0.037-1.99,0.111-2.707
				c0.073-0.716,0.186-1.298,0.333-1.743c0.148-0.444,0.335-0.753,0.558-0.927c0.223-0.172,0.48-0.26,0.778-0.26
				c0.518,0,1.251,0.421,2.197,1.261c0.944,0.842,2.158,1.756,3.643,2.744c1.482,0.99,3.271,1.917,5.366,2.781
				c2.095,0.865,4.515,1.298,7.259,1.298c2.076,0,3.978-0.371,5.7-1.112c1.725-0.742,3.208-1.792,4.451-3.152
				c1.24-1.359,2.196-3.027,2.863-5.006c0.668-1.976,1.001-4.227,1.001-6.748c0-2.719-0.464-5.043-1.39-6.971
				c-0.928-1.928-2.15-3.621-3.671-5.08c-1.521-1.458-3.255-2.792-5.2-4.005c-1.946-1.21-3.94-2.446-5.979-3.707
				c-2.041-1.261-4.024-2.657-5.951-4.19c-1.929-1.532-3.653-3.337-5.174-5.414c-1.52-2.076-2.753-4.511-3.699-7.304
				c-0.944-2.793-1.417-6.143-1.417-10.049c0-4.005,0.546-7.576,1.64-10.716c1.095-3.139,2.615-5.771,4.562-7.898
				c1.947-2.125,4.263-3.745,6.952-4.857c2.688-1.112,5.59-1.668,8.704-1.668c1.594,0,3.198,0.186,4.812,0.556
				c1.613,0.371,3.133,0.866,4.561,1.483c1.427,0.619,2.698,1.311,3.81,2.076c1.112,0.768,1.845,1.385,2.197,1.854
				c0.353,0.472,0.584,0.842,0.696,1.113c0.11,0.272,0.202,0.619,0.276,1.038c0.075,0.421,0.131,0.928,0.168,1.521
				c0.036,0.593,0.055,1.36,0.055,2.299c0,0.89-0.027,1.682-0.082,2.373c-0.057,0.692-0.141,1.273-0.251,1.743
				c-0.111,0.47-0.27,0.815-0.473,1.038c-0.204,0.223-0.436,0.333-0.696,0.333c-0.407,0-1.047-0.346-1.919-1.037
				c-0.871-0.692-1.938-1.471-3.197-2.337c-1.261-0.864-2.754-1.656-4.477-2.373c-1.725-0.716-3.663-1.075-5.813-1.075
				c-2.003,0-3.746,0.359-5.229,1.075c-1.483,0.717-2.707,1.669-3.67,2.855c-0.965,1.187-1.688,2.596-2.17,4.227
				c-0.482,1.632-0.724,3.362-0.724,5.191c0,2.669,0.464,4.969,1.392,6.896c0.926,1.928,2.158,3.634,3.697,5.117
				c1.539,1.482,3.29,2.844,5.257,4.078c1.965,1.237,3.968,2.485,6.006,3.746c2.039,1.26,4.042,2.645,6.008,4.152
				c1.965,1.509,3.716,3.288,5.255,5.34c1.54,2.052,2.781,4.475,3.728,7.267C635.827,76.791,636.3,80.091,636.3,83.898z"/>
		</g>
		<g>
			<path fill="#666666" d="M349.43,214.938c0,0.792-0.019,1.483-0.056,2.076c-0.036,0.595-0.101,1.113-0.191,1.558
				c-0.092,0.445-0.21,0.841-0.355,1.187c-0.146,0.347-0.402,0.768-0.766,1.261c-0.365,0.495-1.132,1.25-2.299,2.263
				c-1.169,1.014-2.619,2.001-4.353,2.966c-1.733,0.964-3.722,1.78-5.966,2.446c-2.244,0.668-4.698,1.002-7.361,1.002
				c-4.597,0-8.748-1.038-12.451-3.115c-3.705-2.076-6.861-5.141-9.47-9.194c-2.609-4.054-4.615-9.061-6.021-15.018
				s-2.107-12.817-2.107-20.579c0-7.959,0.757-15.054,2.271-21.285c1.514-6.229,3.641-11.505,6.377-15.832
				c2.736-4.325,6.012-7.626,9.825-9.899c3.813-2.273,8.036-3.411,12.671-3.411c2.042,0,4.029,0.258,5.965,0.778
				c1.934,0.52,3.723,1.175,5.364,1.965c1.642,0.792,3.1,1.706,4.379,2.744c1.275,1.038,2.161,1.891,2.654,2.559
				c0.493,0.667,0.812,1.175,0.958,1.521c0.145,0.347,0.265,0.754,0.356,1.223c0.091,0.471,0.164,1.027,0.219,1.669
				c0.055,0.644,0.081,1.408,0.081,2.299c0,0.989-0.037,1.83-0.11,2.521c-0.074,0.693-0.182,1.274-0.33,1.743
				c-0.147,0.472-0.32,0.815-0.521,1.039c-0.203,0.222-0.451,0.334-0.744,0.334c-0.513,0-1.229-0.482-2.146-1.447
				c-0.918-0.964-2.102-2.025-3.55-3.188c-1.449-1.162-3.21-2.226-5.282-3.19c-2.073-0.964-4.559-1.444-7.455-1.444
				c-3.156,0-6.026,0.853-8.611,2.559c-2.588,1.705-4.797,4.215-6.632,7.526c-1.834,3.313-3.255,7.354-4.265,12.125
				c-1.01,4.771-1.514,10.222-1.514,16.352c0,6.082,0.487,11.459,1.459,16.131c0.971,4.672,2.365,8.577,4.182,11.716
				c1.816,3.141,4.044,5.514,6.685,7.119c2.641,1.607,5.631,2.411,8.971,2.411c2.822,0,5.291-0.47,7.399-1.41
				c2.109-0.938,3.907-1.989,5.393-3.151c1.486-1.16,2.705-2.212,3.659-3.151c0.954-0.938,1.706-1.408,2.256-1.408
				c0.258,0,0.478,0.073,0.66,0.222c0.184,0.148,0.33,0.434,0.441,0.854c0.108,0.42,0.191,1.001,0.247,1.741
				C349.401,212.862,349.43,213.801,349.43,214.938z"/>
			<path fill="#666666" d="M378.385,226.58c0,0.397-0.073,0.742-0.219,1.038c-0.146,0.297-0.401,0.533-0.766,0.705
				c-0.365,0.175-0.848,0.321-1.45,0.445c-0.603,0.122-1.359,0.185-2.271,0.185c-0.877,0-1.626-0.063-2.245-0.185
				c-0.621-0.124-1.114-0.271-1.479-0.445c-0.365-0.172-0.621-0.408-0.766-0.705c-0.146-0.296-0.219-0.641-0.219-1.038v-92.104
				c0-0.396,0.082-0.742,0.246-1.038s0.438-0.53,0.821-0.704c0.382-0.173,0.875-0.322,1.478-0.445s1.322-0.187,2.163-0.187
				c0.911,0,1.668,0.063,2.271,0.187s1.085,0.272,1.45,0.445c0.364,0.174,0.62,0.408,0.766,0.704s0.219,0.642,0.219,1.038V226.58z"
				/>
			<path fill="#666666" d="M451.512,226.58c0,0.397-0.055,0.742-0.164,1.038c-0.109,0.297-0.348,0.545-0.712,0.742
				c-0.365,0.197-0.875,0.346-1.532,0.445c-0.657,0.099-1.534,0.147-2.628,0.147c-0.95,0-1.723-0.049-2.325-0.147
				c-0.604-0.1-1.087-0.26-1.451-0.482c-0.365-0.223-0.648-0.53-0.849-0.928c-0.201-0.395-0.375-0.889-0.52-1.482l-6.514-22.618
				c-0.767-2.57-1.56-4.932-2.382-7.082c-0.82-2.151-1.796-4.005-2.929-5.563c-1.13-1.557-2.463-2.768-3.993-3.634
				c-1.533-0.863-3.377-1.298-5.529-1.298h-6.295v40.861c0,0.397-0.083,0.742-0.246,1.038c-0.164,0.297-0.42,0.533-0.766,0.705
				c-0.348,0.175-0.82,0.321-1.423,0.445c-0.603,0.122-1.36,0.185-2.272,0.185s-1.668-0.063-2.271-0.185
				c-0.603-0.124-1.086-0.271-1.45-0.445c-0.365-0.172-0.621-0.408-0.766-0.705c-0.146-0.296-0.219-0.641-0.219-1.038v-88.842
				c0-1.928,0.373-3.275,1.122-4.041c0.747-0.767,1.54-1.15,2.38-1.15h15.051c1.789,0,3.277,0.063,4.462,0.187
				c1.186,0.123,2.253,0.259,3.203,0.408c2.736,0.642,5.153,1.656,7.252,3.039c2.098,1.385,3.859,3.141,5.282,5.266
				c1.422,2.126,2.489,4.561,3.202,7.305c0.71,2.744,1.066,5.772,1.066,9.085c0,3.215-0.318,6.093-0.958,8.638
				c-0.639,2.548-1.56,4.798-2.764,6.75c-1.204,1.953-2.646,3.646-4.324,5.079c-1.678,1.436-3.559,2.646-5.637,3.634
				c1.167,0.693,2.225,1.57,3.174,2.634c0.948,1.063,1.834,2.336,2.654,3.819c0.821,1.482,1.597,3.188,2.327,5.116
				c0.729,1.929,1.457,4.104,2.188,6.525l6.35,21.136c0.511,1.779,0.84,3.029,0.985,3.745
				C451.438,225.629,451.512,226.186,451.512,226.58z M437.336,159.17c0-3.756-0.621-6.933-1.861-9.529
				c-1.241-2.596-3.321-4.461-6.239-5.599c-0.913-0.346-1.944-0.594-3.093-0.741c-1.15-0.149-2.656-0.224-4.517-0.224h-7.937v32.333
				h9.196c2.481,0,4.625-0.408,6.431-1.224c1.807-0.815,3.313-1.952,4.516-3.411c1.204-1.458,2.089-3.176,2.655-5.154
				C437.052,163.645,437.336,161.495,437.336,159.17z"/>
			<path fill="#666666" d="M518.507,214.938c0,0.792-0.019,1.483-0.055,2.076c-0.037,0.595-0.101,1.113-0.191,1.558
				c-0.092,0.445-0.209,0.841-0.356,1.187c-0.146,0.347-0.402,0.768-0.765,1.261c-0.366,0.495-1.133,1.25-2.299,2.263
				c-1.168,1.014-2.619,2.001-4.354,2.966c-1.733,0.964-3.722,1.78-5.964,2.446c-2.244,0.668-4.699,1.002-7.362,1.002
				c-4.598,0-8.75-1.038-12.452-3.115c-3.704-2.076-6.861-5.141-9.469-9.194c-2.609-4.054-4.617-9.061-6.021-15.018
				c-1.405-5.957-2.108-12.817-2.108-20.579c0-7.959,0.757-15.054,2.272-21.285c1.514-6.229,3.639-11.505,6.376-15.832
				c2.736-4.325,6.012-7.626,9.824-9.899c3.813-2.273,8.037-3.411,12.672-3.411c2.043,0,4.031,0.258,5.965,0.778
				c1.935,0.52,3.724,1.175,5.365,1.965c1.642,0.792,3.101,1.706,4.379,2.744c1.276,1.038,2.161,1.891,2.654,2.559
				c0.493,0.667,0.812,1.175,0.958,1.521c0.146,0.347,0.264,0.754,0.355,1.223c0.091,0.471,0.164,1.027,0.219,1.669
				c0.056,0.644,0.081,1.408,0.081,2.299c0,0.989-0.036,1.83-0.109,2.521c-0.073,0.693-0.183,1.274-0.329,1.743
				c-0.147,0.472-0.321,0.815-0.523,1.039c-0.201,0.222-0.449,0.334-0.743,0.334c-0.514,0-1.229-0.482-2.146-1.447
				c-0.919-0.964-2.101-2.025-3.55-3.188s-3.211-2.226-5.283-3.19c-2.073-0.964-4.557-1.444-7.454-1.444
				c-3.156,0-6.027,0.853-8.613,2.559c-2.587,1.705-4.797,4.215-6.63,7.526c-1.835,3.313-3.257,7.354-4.266,12.125
				c-1.009,4.771-1.512,10.222-1.512,16.352c0,6.082,0.484,11.459,1.457,16.131c0.972,4.672,2.366,8.577,4.182,11.716
				c1.816,3.141,4.045,5.514,6.686,7.119c2.642,1.607,5.632,2.411,8.97,2.411c2.823,0,5.292-0.47,7.401-1.41
				c2.107-0.938,3.905-1.989,5.392-3.151c1.485-1.16,2.705-2.212,3.66-3.151c0.953-0.938,1.704-1.408,2.256-1.408
				c0.256,0,0.478,0.073,0.658,0.222c0.185,0.148,0.331,0.434,0.441,0.854s0.193,1.001,0.248,1.741
				C518.479,212.862,518.507,213.801,518.507,214.938z"/>
			<path fill="#666666" d="M574.777,222.947c0,0.99-0.038,1.817-0.111,2.485s-0.191,1.236-0.355,1.706s-0.365,0.815-0.601,1.038
				c-0.239,0.222-0.521,0.333-0.85,0.333h-31.308c-0.84,0-1.634-0.383-2.382-1.149c-0.747-0.766-1.122-2.113-1.122-4.041v-88.843
				c0-0.396,0.072-0.742,0.219-1.038s0.402-0.53,0.767-0.704c0.364-0.173,0.857-0.322,1.478-0.445
				c0.621-0.123,1.37-0.187,2.245-0.187c0.911,0,1.67,0.063,2.272,0.187c0.601,0.123,1.083,0.272,1.449,0.445
				c0.365,0.174,0.62,0.408,0.767,0.704c0.146,0.296,0.219,0.642,0.219,1.038v82.983h25.396c0.328,0,0.61,0.112,0.85,0.334
				c0.235,0.223,0.437,0.544,0.601,0.964c0.164,0.421,0.282,0.977,0.355,1.668C574.739,221.118,574.777,221.959,574.777,222.947z"/>
			<path fill="#666666" d="M631.646,223.243c0,0.891-0.037,1.669-0.11,2.336c-0.073,0.668-0.2,1.224-0.383,1.669
				s-0.392,0.768-0.629,0.965c-0.238,0.197-0.502,0.296-0.794,0.296h-33.991c-0.838,0-1.632-0.383-2.38-1.149
				c-0.749-0.766-1.122-2.113-1.122-4.041v-85.58c0-1.928,0.373-3.275,1.122-4.041c0.748-0.767,1.542-1.15,2.38-1.15h33.608
				c0.291,0,0.556,0.1,0.793,0.297c0.237,0.199,0.43,0.519,0.574,0.964c0.146,0.445,0.266,1.002,0.356,1.668
				c0.092,0.669,0.137,1.497,0.137,2.484c0,0.89-0.045,1.67-0.137,2.337c-0.091,0.667-0.21,1.213-0.356,1.632
				c-0.145,0.421-0.337,0.729-0.574,0.927s-0.502,0.296-0.793,0.296h-27.695v30.109h23.755c0.291,0,0.555,0.11,0.793,0.333
				c0.236,0.223,0.438,0.531,0.603,0.928c0.164,0.396,0.281,0.939,0.354,1.631c0.074,0.692,0.11,1.51,0.11,2.448
				c0,0.89-0.036,1.656-0.11,2.298c-0.073,0.644-0.19,1.162-0.354,1.559c-0.164,0.396-0.366,0.679-0.603,0.853
				c-0.238,0.173-0.502,0.26-0.793,0.26h-23.755v34.335h28.078c0.292,0,0.556,0.1,0.794,0.297c0.237,0.197,0.446,0.508,0.629,0.926
				c0.183,0.421,0.31,0.965,0.383,1.633C631.609,221.427,631.646,222.255,631.646,223.243z"/>
		</g>
	</g>
	<g>
		<path fill="#0000FF" d="M213.609,89.829c5.58,11.917,8.716,25.198,8.716,39.203c0,51.164-41.625,92.787-92.788,92.787
			c-51.163,0-92.788-41.623-92.788-92.787c0-51.164,41.625-92.788,92.788-92.788c14.005,0,27.286,3.137,39.204,8.716l13.844-29.688
			c-16.124-7.549-34.1-11.776-53.047-11.776C60.316,3.496,4,59.812,4,129.032s56.316,125.536,125.537,125.536
			c69.221,0,125.537-56.315,125.537-125.536c0-18.948-4.228-36.924-11.776-53.048L213.609,89.829z"/>
		<g>
			<circle fill="#B3B3B3" cx="200.956" cy="57.614" r="18.421"/>
			<g>
				<path fill="#B3B3B3" d="M129.537,192.252c-34.859,0-63.219-28.36-63.219-63.22c0-34.859,28.36-63.219,63.219-63.219
					c34.859,0,63.219,28.36,63.219,63.219C192.756,163.892,164.396,192.252,129.537,192.252z M129.537,98.562
					c-16.801,0-30.47,13.669-30.47,30.47c0,16.801,13.669,30.471,30.47,30.471c16.802,0,30.471-13.67,30.471-30.471
					C160.008,112.231,146.339,98.562,129.537,98.562z"/>
			</g>
		</g>
	</g>
</g>
</svg>
